<!DOCTYPE svg PUBLIC "-//W3C//DTD SVG 1.1//EN" "http://www.w3.org/Graphics/SVG/1.1/DTD/svg11.dtd">
<!-- Uploaded to: SVG Repo, www.svgrepo.com, Transformed by: SVG Repo Mixer Tools -->
<svg width="800px" height="800px" viewBox="-2 -2 24.00 24.00" xmlns="http://www.w3.org/2000/svg" fill="#000000">
<g id="SVGRepo_bgCarrier" stroke-width="0">
<rect x="-2" y="-2" width="24.00" height="24.00" rx="2.64" fill="#eeff00" strokewidth="0"/>
</g>
<g id="SVGRepo_tracerCarrier" stroke-linecap="round" stroke-linejoin="round"/>
<g id="SVGRepo_iconCarrier"> <rect x="0" fill="none" width="20" height="20"/> <g> <path d="M4 3h12c.55 0 1.02.2 1.41.59S18 4.45 18 5v7c0 .55-.2 1.02-.59 1.41S16.55 14 16 14h-1l-5 5v-5H4c-.55 0-1.02-.2-1.41-.59S2 12.55 2 12V5c0-.55.2-1.02.59-1.41S3.45 3 4 3zm11 2H4v1h11V5zm1 3H4v1h12V8zm-3 3H4v1h9v-1z"/> </g> </g>
</svg>