<!DOCTYPE svg PUBLIC "-//W3C//DTD SVG 1.1//EN" "http://www.w3.org/Graphics/SVG/1.1/DTD/svg11.dtd">

<!-- Uploaded to: SVG Repo, www.svgrepo.com, Transformed by: SVG Repo Mixer Tools -->
<svg width="800px" height="800px" viewBox="-40 -40 480.00 480.00" fill="none" xmlns="http://www.w3.org/2000/svg" stroke="#ffffff">

<g id="SVGRepo_bgCarrier" stroke-width="0">

<rect x="-40" y="-40" width="480.00" height="480.00" rx="240" fill="#86ec7e" strokewidth="0"/>

</g>

<g id="SVGRepo_tracerCarrier" stroke-linecap="round" stroke-linejoin="round"/>

<g id="SVGRepo_iconCarrier"> <path d="M200.575 276.903C195.161 284.965 179.841 300.529 168.667 294.938C134.001 277.605 153 225.659 149.236 220.017C143.568 211.508 131.886 222.056 128.426 187.408C127.318 176.37 129.475 167.344 131.895 156.88C132.588 153.852 131.886 152.727 133.975 150.638C134.855 149.758 138.002 150.359 137.444 149.25C126.878 128.12 127.453 97.0085 145.768 76.4027C150.463 71.1159 162.441 66.7511 169.36 67.3856C172.22 67.6393 177.566 74.4402 179.072 72.9346C192.302 59.6964 205.659 54.1305 225.555 56.9727C257.26 61.5066 250.104 72.6808 260.246 89.5816C263.334 94.7246 281.411 95.4859 287.307 113.173C298.186 145.808 263.021 166.422 263.021 169.366C263.021 181.766 269.856 190.614 266.489 204.056C264.315 212.76 258.318 223.359 251.229 229.035C250.256 229.813 247.761 229.178 247.761 230.422C247.761 235.125 266.997 257.017 249.842 277.597C237.491 292.408 207.046 301.375 201.971 281.065" stroke="#5c5c5c" stroke-opacity="0.9" stroke-width="16" stroke-linecap="round" stroke-linejoin="round"/> <path d="M197.909 242.295C238.725 236.549 207.948 276.818 197.909 272.015C191.666 269.024 191.736 252.837 190.688 247.823" stroke="#5c5c5c" stroke-opacity="0.9" stroke-width="16" stroke-linecap="round" stroke-linejoin="round"/> <path d="M183.512 190.04C183.512 183.067 183.512 176.094 183.512 169.121" stroke="#5c5c5c" stroke-opacity="0.9" stroke-width="16" stroke-linecap="round" stroke-linejoin="round"/> <path d="M229.024 191.435C230.025 184.025 229.708 176.565 229.708 169.121" stroke="#5c5c5c" stroke-opacity="0.9" stroke-width="16" stroke-linecap="round" stroke-linejoin="round"/> <path d="M119.965 151.086C93.9405 150.667 84.7228 188.659 87.7787 210.173C88.2713 213.582 94.2744 218.877 93.9488 221.172C93.2475 226.057 71.197 230.576 68.8319 250.805C67.5659 261.634 73.9857 275.3 79.563 283.694C81.141 286.065 85.683 284.364 84.3555 283.694C65.102 274.035 70.394 329.783 96.9532 339.3C113.76 345.324 129.333 316.903 139.144 307.059C141.782 304.403 167.047 344.23 170.754 307.059" stroke="#5c5c5c" stroke-opacity="0.9" stroke-width="16" stroke-linecap="round" stroke-linejoin="round"/> <path d="M292.108 158.071C322.619 176.186 296.079 200.665 312.665 206.612C329.25 212.559 338.054 253.441 322.619 280.164C322.402 280.54 335.121 295.175 329.25 307.38C324.075 318.132 296.2 336.094 289.456 319.881C288.397 317.343 286.165 314.186 287.467 311.792C292.189 303.067 302.225 333.189 288.793 341.206C276.558 348.514 233.803 338.112 241.704 317.675" stroke="#5c5c5c" stroke-opacity="0.9" stroke-width="16" stroke-linecap="round" stroke-linejoin="round"/> </g>

</svg>